<?xml version="1.0" encoding="UTF-8"?>
<svg id="Layer_1" data-name="Layer 1" xmlns="http://www.w3.org/2000/svg" viewBox="0 0 262.75 183.75">
  <defs>
    <style>
      .cls-1 {
        fill: #231f20;
      }

      .cls-2 {
        isolation: isolate;
      }
    </style>
  </defs>
  <g class="cls-2">
    <g class="cls-2">
      <path class="cls-1" d="M35.75,91l3-32.25,3.25.5-29.5,20L.5,58.25l31.75-13.5-.25,2L0,32,12.25,11.25l30.25,21.5-3.75.25L35.5,0h25.25l-3.25,34.75-3.25-1.75,28.75-21.5,12.25,21-32.5,14.75v-2.75l32,13.75-12,20.5-28.5-20.5,3.5.5,3.5,32.25h-25.5Z"/>
      <path class="cls-1" d="M131.5,183.75c-6.5,0-11.5-1.84-15-5.5s-5.25-8.91-5.25-15.75c0-6.16,1.88-11.21,5.62-15.12,3.75-3.91,8.62-5.88,14.62-5.88,6.33,0,11.25,1.84,14.75,5.5,3.5,3.67,5.25,8.84,5.25,15.5s-1.84,11.46-5.5,15.38c-3.67,3.91-8.5,5.88-14.5,5.88Z"/>
      <path class="cls-1" d="M203.25,91l3-32.25,3.25.5-29.5,20-12-21,31.75-13.5-.25,2-32-14.75,12.25-20.75,30.25,21.5-3.75.25-3.25-33h25.25l-3.25,34.75-3.25-1.75,28.75-21.5,12.25,21-32.5,14.75v-2.75l32,13.75-12,20.5-28.5-20.5,3.5.5,3.5,32.25h-25.5Z"/>
    </g>
  </g>
</svg>